<?xml version="1.0" encoding="utf-8"?>
<!-- Generator: Adobe Illustrator 26.0.2, SVG Export Plug-In . SVG Version: 6.00 Build 0)  -->
<svg version="1.1" id="Layer_1" xmlns="http://www.w3.org/2000/svg" xmlns:xlink="http://www.w3.org/1999/xlink" x="0px" y="0px"
	 viewBox="0 0 103 22" style="enable-background:new 0 0 103 22;" xml:space="preserve">
<style type="text/css">
	.st0{fill-rule:evenodd;clip-rule:evenodd;fill:#00A4E5;}
</style>
<path class="st0" d="M4.5,11.2l-0.8,1.6V18H0.9V0.8h2.7v7.5l3.5-7.5h2.7L6.1,8.5L9.9,18H7.1L4.5,11.2z M13.7,14.1
	c0,0.6,0.1,1.1,0.4,1.3c0.3,0.3,0.6,0.4,1,0.4c0.4,0,0.8-0.1,1-0.4c0.3-0.3,0.4-0.7,0.4-1.3V4.8c0-0.6-0.1-1.1-0.4-1.3
	c-0.3-0.3-0.6-0.4-1-0.4c-0.4,0-0.8,0.1-1,0.4c-0.3,0.3-0.4,0.7-0.4,1.3V14.1z M11,4.9c0-1.4,0.4-2.5,1.1-3.2
	c0.7-0.7,1.7-1.1,3.1-1.1c1.3,0,2.3,0.4,3.1,1.1c0.7,0.7,1.1,1.8,1.1,3.2v9c0,1.4-0.4,2.5-1.1,3.2c-0.7,0.7-1.7,1.1-3.1,1.1
	c-1.3,0-2.3-0.4-3.1-1.1c-0.7-0.7-1.1-1.8-1.1-3.2V4.9z M23.6,5.5V18h-2.4V0.8h3.4l2.8,10.3V0.8h2.4V18H27L23.6,5.5z M31.7,4.9
	c0-1.4,0.3-2.5,1-3.2c0.7-0.7,1.7-1.1,3-1.1s2.3,0.4,3,1.1c0.7,0.7,1,1.8,1,3.2v0.5h-2.6V4.8c0-0.6-0.1-1.1-0.4-1.3
	c-0.2-0.3-0.6-0.4-1-0.4s-0.8,0.1-1,0.4c-0.2,0.3-0.4,0.7-0.4,1.3c0,0.6,0.1,1.1,0.4,1.6c0.3,0.5,0.6,0.9,1,1.3
	C36.1,8,36.6,8.4,37,8.8c0.5,0.4,0.9,0.8,1.3,1.3c0.4,0.5,0.7,1,1,1.6c0.3,0.6,0.4,1.3,0.4,2.1c0,1.4-0.3,2.5-1,3.2
	c-0.7,0.7-1.7,1.1-3,1.1c-1.3,0-2.3-0.4-3-1.1c-0.7-0.7-1-1.8-1-3.2v-1.1h2.6v1.2c0,0.6,0.1,1.1,0.4,1.3c0.3,0.2,0.6,0.4,1,0.4
	s0.8-0.1,1-0.4c0.3-0.2,0.4-0.7,0.4-1.3c0-0.6-0.1-1.1-0.4-1.6c-0.3-0.5-0.6-0.9-1-1.3c-0.4-0.4-0.8-0.8-1.3-1.2
	c-0.5-0.4-0.9-0.8-1.3-1.3c-0.4-0.5-0.7-1-1-1.6C31.8,6.5,31.7,5.8,31.7,4.9z M40.7,0.8h8.4v2.5h-2.8V18h-2.7V3.3h-2.8V0.8z
	 M56.2,18c0-0.1-0.1-0.2-0.1-0.3c0-0.1-0.1-0.2-0.1-0.4c0-0.1,0-0.3,0-0.6c0-0.2,0-0.5,0-0.9v-2.7c0-0.8-0.1-1.4-0.4-1.7
	c-0.3-0.3-0.7-0.5-1.4-0.5h-0.9v7h-2.7V0.8h4.1c1.4,0,2.4,0.3,3.1,1c0.6,0.7,0.9,1.6,0.9,3v1.4c0,1.8-0.6,2.9-1.8,3.5
	c0.7,0.3,1.2,0.7,1.4,1.4c0.3,0.6,0.4,1.4,0.4,2.3v2.7c0,0.4,0,0.8,0,1.1c0,0.3,0.1,0.6,0.2,1H56.2z M53.2,3.3v5.3h1.1
	c0.5,0,0.9-0.1,1.2-0.4c0.3-0.3,0.4-0.7,0.4-1.4V5c0-0.6-0.1-1.1-0.3-1.4c-0.2-0.3-0.6-0.4-1-0.4H53.2z M63.3,0.8v13.3
	c0,0.6,0.1,1.1,0.4,1.3c0.3,0.2,0.6,0.4,1,0.4c0.4,0,0.8-0.1,1-0.4c0.3-0.2,0.4-0.7,0.4-1.3V0.8h2.6v13.1c0,1.4-0.3,2.5-1,3.2
	c-0.7,0.7-1.7,1.1-3,1.1c-1.3,0-2.3-0.4-3-1.1c-0.7-0.7-1-1.8-1-3.2V0.8H63.3z M78.2,0.8h8.4v2.5h-2.8V18H81V3.3h-2.8V0.8z"/>
</svg>
