<?xml version="1.0" encoding="utf-8"?>
<!-- Generator: Adobe Illustrator 26.0.2, SVG Export Plug-In . SVG Version: 6.00 Build 0)  -->
<svg version="1.1" id="Layer_1" xmlns="http://www.w3.org/2000/svg" xmlns:xlink="http://www.w3.org/1999/xlink" x="0px" y="0px"
	 viewBox="0 0 103 22" style="enable-background:new 0 0 103 22;" xml:space="preserve">
<style type="text/css">
	.st0{fill-rule:evenodd;clip-rule:evenodd;fill:#FFFFFF;}
</style>
<path class="st0" d="M4.7,12l-0.9,1.7v5.7H0.9V0.8h2.9v8.1l3.8-8.1h2.9L6.5,9.1l4.1,10.3h-3L4.7,12z M14.7,15.1
	c0,0.7,0.1,1.1,0.4,1.4c0.3,0.3,0.6,0.4,1.1,0.4s0.8-0.1,1.1-0.4c0.3-0.3,0.4-0.7,0.4-1.4v-10c0-0.7-0.1-1.1-0.4-1.4
	c-0.3-0.3-0.6-0.4-1.1-0.4s-0.8,0.1-1.1,0.4c-0.3,0.3-0.4,0.7-0.4,1.4V15.1z M11.8,5.3c0-1.5,0.4-2.7,1.1-3.5
	c0.8-0.8,1.9-1.2,3.3-1.2c1.4,0,2.5,0.4,3.3,1.2c0.8,0.8,1.1,2,1.1,3.5v9.7c0,1.5-0.4,2.7-1.1,3.5c-0.8,0.8-1.9,1.2-3.3,1.2
	c-1.4,0-2.5-0.4-3.3-1.2c-0.8-0.8-1.1-2-1.1-3.5V5.3z M25.4,5.9v13.5h-2.6V0.8h3.7l3,11.1V0.8h2.6v18.6h-3L25.4,5.9z M34.1,5.3
	c0-1.5,0.4-2.7,1.1-3.5C35.9,1,37,0.6,38.4,0.6s2.5,0.4,3.2,1.2c0.7,0.8,1.1,2,1.1,3.5v0.6h-2.8V5.1c0-0.7-0.1-1.1-0.4-1.4
	c-0.3-0.3-0.6-0.4-1.1-0.4c-0.5,0-0.8,0.1-1.1,0.4C37.1,3.9,37,4.4,37,5.1c0,0.6,0.1,1.2,0.4,1.7c0.3,0.5,0.6,0.9,1.1,1.4
	c0.4,0.4,0.9,0.9,1.4,1.3c0.5,0.4,0.9,0.9,1.4,1.4c0.4,0.5,0.8,1.1,1.1,1.8c0.3,0.7,0.4,1.4,0.4,2.3c0,1.5-0.4,2.7-1.1,3.5
	c-0.7,0.8-1.8,1.2-3.3,1.2c-1.4,0-2.5-0.4-3.3-1.2c-0.7-0.8-1.1-2-1.1-3.5v-1.1h2.8v1.3c0,0.7,0.1,1.1,0.4,1.4
	c0.3,0.3,0.6,0.4,1.1,0.4c0.5,0,0.8-0.1,1.1-0.4c0.3-0.3,0.4-0.7,0.4-1.4c0-0.6-0.1-1.2-0.4-1.7c-0.3-0.5-0.6-0.9-1.1-1.4
	c-0.4-0.4-0.9-0.9-1.4-1.3c-0.5-0.4-0.9-0.9-1.4-1.4c-0.4-0.5-0.8-1.1-1.1-1.8C34.2,6.9,34.1,6.2,34.1,5.3z M43.8,0.8h9v2.7h-3.1
	v15.9h-2.9V3.5h-3.1V0.8z M60.5,19.4c0-0.1-0.1-0.2-0.1-0.3c0-0.1-0.1-0.2-0.1-0.4c0-0.2,0-0.4-0.1-0.6c0-0.2,0-0.6,0-0.9v-2.9
	c0-0.9-0.2-1.5-0.5-1.8c-0.3-0.4-0.8-0.5-1.5-0.5h-1v7.6h-2.9V0.8h4.4c1.5,0,2.6,0.4,3.3,1.1c0.7,0.7,1,1.8,1,3.2v1.5
	c0,1.9-0.6,3.2-1.9,3.8c0.7,0.3,1.3,0.8,1.5,1.5c0.3,0.7,0.4,1.5,0.4,2.5v2.9c0,0.5,0,0.9,0.1,1.2c0,0.3,0.1,0.7,0.3,1H60.5z
	 M57.4,3.5v5.7h1.1c0.5,0,1-0.1,1.3-0.4c0.3-0.3,0.5-0.8,0.5-1.5V5.4c0-0.7-0.1-1.2-0.4-1.5c-0.2-0.3-0.6-0.5-1.1-0.5H57.4z
	 M68.2,0.8v14.3c0,0.7,0.1,1.1,0.4,1.4c0.3,0.3,0.6,0.4,1.1,0.4s0.8-0.1,1.1-0.4c0.3-0.3,0.4-0.7,0.4-1.4V0.8H74V15
	c0,1.5-0.4,2.7-1.1,3.5c-0.7,0.8-1.8,1.2-3.3,1.2s-2.5-0.4-3.3-1.2c-0.7-0.8-1.1-2-1.1-3.5V0.8H68.2z M84.2,0.8h9v2.7h-3.1v15.9
	h-2.9V3.5h-3.1V0.8z"/>
</svg>
