<?xml version="1.0" encoding="utf-8"?>
<!-- Generator: Adobe Illustrator 26.0.2, SVG Export Plug-In . SVG Version: 6.00 Build 0)  -->
<svg version="1.1" id="Layer_1" xmlns="http://www.w3.org/2000/svg" xmlns:xlink="http://www.w3.org/1999/xlink" x="0px" y="0px"
	 viewBox="0 0 103 22" style="enable-background:new 0 0 103 22;" xml:space="preserve">
<style type="text/css">
	.st0{fill-rule:evenodd;clip-rule:evenodd;fill:#00A4E5;}
</style>
<path class="st0" d="M5.1,13.2l-1,1.9v6.3H0.9V0.8h3.2v8.9l4.2-8.9h3.2L7.1,10l4.5,11.4H8.3L5.1,13.2z M16.1,16.6
	c0,0.7,0.2,1.3,0.5,1.6c0.3,0.3,0.7,0.5,1.2,0.5c0.5,0,0.9-0.2,1.2-0.5c0.3-0.3,0.5-0.8,0.5-1.6V5.5c0-0.7-0.2-1.3-0.5-1.6
	c-0.3-0.3-0.7-0.5-1.2-0.5c-0.5,0-0.9,0.2-1.2,0.5c-0.3,0.3-0.5,0.8-0.5,1.6V16.6z M12.9,5.8c0-1.7,0.4-2.9,1.3-3.8
	c0.8-0.9,2-1.3,3.6-1.3c1.6,0,2.8,0.4,3.6,1.3c0.8,0.9,1.3,2.2,1.3,3.8v10.7c0,1.7-0.4,2.9-1.3,3.8c-0.8,0.9-2,1.3-3.6,1.3
	c-1.6,0-2.8-0.4-3.6-1.3c-0.8-0.9-1.3-2.2-1.3-3.8V5.8z M28,6.5v14.8h-2.9V0.8h4l3.3,12.3V0.8h2.9v20.5H32L28,6.5z M37.5,5.8
	c0-1.7,0.4-2.9,1.2-3.8c0.8-0.9,2-1.3,3.6-1.3S45,1,45.8,1.9C46.6,2.8,47,4.1,47,5.8v0.6h-3V5.5c0-0.7-0.1-1.3-0.4-1.6
	c-0.3-0.3-0.7-0.5-1.2-0.5S41.4,3.7,41.1,4c-0.3,0.3-0.4,0.8-0.4,1.6c0,0.7,0.2,1.3,0.5,1.9c0.3,0.5,0.7,1,1.2,1.5
	c0.5,0.5,1,1,1.5,1.4c0.5,0.5,1,1,1.5,1.6c0.5,0.6,0.9,1.2,1.2,1.9c0.3,0.7,0.5,1.6,0.5,2.5c0,1.7-0.4,2.9-1.2,3.8
	c-0.8,0.9-2,1.3-3.6,1.3c-1.6,0-2.8-0.4-3.6-1.3c-0.8-0.9-1.2-2.2-1.2-3.8v-1.3h3v1.5c0,0.7,0.2,1.3,0.5,1.6
	c0.3,0.3,0.7,0.4,1.2,0.4s0.9-0.1,1.2-0.4c0.3-0.3,0.5-0.8,0.5-1.6c0-0.7-0.2-1.3-0.5-1.9c-0.3-0.5-0.7-1-1.2-1.5
	c-0.5-0.5-1-1-1.5-1.4c-0.5-0.5-1-1-1.5-1.6C38.7,9.7,38.3,9,38,8.3C37.7,7.6,37.5,6.7,37.5,5.8z M48.3,0.8h10v2.9h-3.4v17.6h-3.2
	V3.8h-3.4V0.8z M66.7,21.3c0-0.1-0.1-0.3-0.1-0.4c0-0.1-0.1-0.3-0.1-0.4c0-0.2,0-0.4-0.1-0.7c0-0.3,0-0.6,0-1v-3.2
	c0-1-0.2-1.6-0.5-2C65.6,13.2,65,13,64.3,13h-1.1v8.3h-3.2V0.8h4.9c1.7,0,2.9,0.4,3.6,1.2c0.8,0.8,1.1,2,1.1,3.5v1.6
	c0,2.1-0.7,3.5-2.1,4.2c0.8,0.3,1.4,0.9,1.7,1.6c0.3,0.8,0.5,1.7,0.5,2.7v3.2c0,0.5,0,1,0.1,1.3c0,0.4,0.1,0.8,0.3,1.2H66.7z
	 M63.2,3.8v6.3h1.3c0.6,0,1.1-0.2,1.4-0.5c0.3-0.3,0.5-0.9,0.5-1.7v-2c0-0.7-0.1-1.3-0.4-1.6c-0.3-0.3-0.7-0.5-1.2-0.5H63.2z
	 M75.1,0.8v15.8c0,0.7,0.2,1.3,0.5,1.6c0.3,0.3,0.7,0.4,1.2,0.4s0.9-0.1,1.2-0.4c0.3-0.3,0.5-0.8,0.5-1.6V0.8h3v15.6
	c0,1.7-0.4,2.9-1.2,3.8c-0.8,0.9-2,1.3-3.6,1.3c-1.6,0-2.8-0.4-3.6-1.3c-0.8-0.9-1.2-2.2-1.2-3.8V0.8H75.1z M92.8,0.8h10v2.9h-3.4
	v17.6h-3.2V3.8h-3.4V0.8z"/>
</svg>
