<svg width="154" height="13" viewBox="0 0 154 13" fill="none" xmlns="http://www.w3.org/2000/svg">
<path d="M4.116 10.168C6.636 10.168 7.56 8.782 7.56 7.424C7.56 3.938 2.03 5.142 2.03 3.042C2.03 2.16 2.828 1.558 3.948 1.558C4.97 1.558 5.95 1.908 6.65 2.678L7.35 1.824C6.566 0.998 5.46 0.521999 4.032 0.521999C2.198 0.521999 0.826 1.572 0.826 3.112C0.826 6.444 6.356 5.114 6.356 7.522C6.356 8.236 5.824 9.132 4.158 9.132C2.842 9.132 1.834 8.488 1.218 7.802L0.532 8.684C1.302 9.552 2.492 10.168 4.116 10.168ZM14.8811 10V5.226C14.8811 3.756 14.1391 3.07 12.7251 3.07C11.7031 3.07 10.7791 3.658 10.3031 4.218V0.661999H9.25313V10H10.3031V5.058C10.7091 4.512 11.4931 4.008 12.3051 4.008C13.2151 4.008 13.8311 4.358 13.8311 5.548V10H14.8811ZM19.9317 10.168C21.9897 10.168 23.2777 8.572 23.2777 6.612C23.2777 4.652 21.9897 3.07 19.9317 3.07C17.8737 3.07 16.5857 4.652 16.5857 6.612C16.5857 8.572 17.8737 10.168 19.9317 10.168ZM19.9317 9.23C18.4897 9.23 17.6777 7.998 17.6777 6.612C17.6777 5.24 18.4897 4.008 19.9317 4.008C21.3737 4.008 22.1717 5.24 22.1717 6.612C22.1717 7.998 21.3737 9.23 19.9317 9.23ZM31.8915 10L34.0475 3.238H32.9555L31.3035 8.628L29.5255 3.238H28.6295L26.8515 8.628L25.1995 3.238H24.1075L26.2635 10H27.3135L29.0775 4.568L30.8415 10H31.8915ZM35.7887 2.272C36.1807 2.272 36.5027 1.964 36.5027 1.572C36.5027 1.18 36.1807 0.857999 35.7887 0.857999C35.4107 0.857999 35.0887 1.18 35.0887 1.572C35.0887 1.964 35.4107 2.272 35.7887 2.272ZM36.3207 10V3.238H35.2707V10H36.3207ZM44.0292 10V5.254C44.0292 3.784 43.2872 3.07 41.8732 3.07C40.8652 3.07 39.9412 3.658 39.4652 4.218V3.238H38.4152V10H39.4652V5.058C39.8572 4.512 40.6412 4.008 41.4672 4.008C42.3772 4.008 42.9792 4.386 42.9792 5.576V10H44.0292ZM48.8422 12.744C50.4942 12.744 52.0622 12.044 52.0622 9.804V3.238H51.0122V4.26C50.4662 3.518 49.6542 3.07 48.7442 3.07C46.9662 3.07 45.7342 4.414 45.7342 6.584C45.7342 8.768 46.9802 10.084 48.7442 10.084C49.6962 10.084 50.5222 9.566 51.0122 8.88V9.846C51.0122 11.33 49.9622 11.876 48.8422 11.876C47.8762 11.876 47.2042 11.624 46.6442 10.952L46.1122 11.736C46.9102 12.52 47.6942 12.744 48.8422 12.744ZM48.9962 9.16C47.6382 9.16 46.8262 8.068 46.8262 6.584C46.8262 5.086 47.6382 4.008 48.9962 4.008C49.8362 4.008 50.6482 4.512 51.0122 5.1V8.054C50.6482 8.642 49.8362 9.16 48.9962 9.16ZM60.3786 10V0.661999H59.3566L57.0186 3.07L57.7186 3.784L59.2166 2.202V10H60.3786ZM69.3508 7.074V6.15H61.8888V7.074H69.3508ZM73.8416 10.168C75.6756 10.168 77.1876 9.216 77.1876 7.634C77.1876 6.388 76.1236 5.534 74.9616 5.184C76.0396 4.876 77.0476 4.176 77.0476 2.944C77.0476 1.264 75.3816 0.521999 73.8416 0.521999C72.2876 0.521999 70.6496 1.264 70.6496 2.944C70.6496 4.176 71.6436 4.876 72.7216 5.184C71.5596 5.534 70.4956 6.388 70.4956 7.634C70.4956 9.23 71.9936 10.168 73.8416 10.168ZM73.8416 4.708C73.2816 4.61 71.8116 4.232 71.8116 3.098C71.8116 2.132 72.7076 1.558 73.8416 1.558C74.9616 1.558 75.8716 2.132 75.8716 3.098C75.8716 4.232 74.4156 4.61 73.8416 4.708ZM73.8416 9.132C72.6796 9.132 71.6576 8.516 71.6576 7.508C71.6576 6.29 73.2676 5.772 73.8416 5.702C74.4156 5.772 76.0116 6.29 76.0116 7.508C76.0116 8.516 74.9896 9.132 73.8416 9.132ZM85.5157 10.168C87.5737 10.168 88.8617 8.572 88.8617 6.612C88.8617 4.652 87.5737 3.07 85.5157 3.07C83.4577 3.07 82.1697 4.652 82.1697 6.612C82.1697 8.572 83.4577 10.168 85.5157 10.168ZM85.5157 9.23C84.0737 9.23 83.2617 7.998 83.2617 6.612C83.2617 5.24 84.0737 4.008 85.5157 4.008C86.9577 4.008 87.7557 5.24 87.7557 6.612C87.7557 7.998 86.9577 9.23 85.5157 9.23ZM91.9174 10V4.162H93.2894V3.238H91.9174V2.72C91.9174 1.866 92.2954 1.39 92.9814 1.39C93.3314 1.39 93.5974 1.53 93.8214 1.726L94.2554 1.04C93.8354 0.647999 93.3594 0.521999 92.8274 0.521999C91.6234 0.521999 90.8674 1.334 90.8674 2.72V3.238H89.7474V4.162H90.8674V10H91.9174ZM100.752 10V0.661999H99.7297L97.3917 3.07L98.0917 3.784L99.5897 2.202V10H100.752ZM106.126 10.168C108.674 10.168 109.696 7.606 109.696 5.338C109.696 3.056 108.674 0.521999 106.126 0.521999C103.564 0.521999 102.556 3.056 102.556 5.338C102.556 7.606 103.564 10.168 106.126 10.168ZM106.126 9.132C104.348 9.132 103.746 7.2 103.746 5.338C103.746 3.476 104.348 1.558 106.126 1.558C107.904 1.558 108.506 3.476 108.506 5.338C108.506 7.2 107.904 9.132 106.126 9.132ZM116.123 10V5.212C116.431 4.666 117.313 4.134 117.957 4.134C118.125 4.134 118.251 4.148 118.377 4.176V3.098C117.453 3.098 116.669 3.616 116.123 4.33V3.238H115.073V10H116.123ZM122.747 10.168C123.853 10.168 124.763 9.804 125.435 9.132L124.931 8.446C124.399 8.992 123.615 9.3 122.845 9.3C121.389 9.3 120.493 8.236 120.409 6.962H125.883V6.696C125.883 4.666 124.679 3.07 122.635 3.07C120.703 3.07 119.303 4.652 119.303 6.612C119.303 8.726 120.745 10.168 122.747 10.168ZM124.847 6.192H120.409C120.465 5.156 121.179 3.938 122.621 3.938C124.161 3.938 124.833 5.184 124.847 6.192ZM129.725 10.168C131.475 10.168 132.385 9.258 132.385 8.124C132.385 5.492 128.199 6.472 128.199 4.988C128.199 4.386 128.773 3.924 129.697 3.924C130.565 3.924 131.307 4.288 131.713 4.778L132.203 4.05C131.657 3.504 130.845 3.07 129.697 3.07C128.087 3.07 127.177 3.966 127.177 5.016C127.177 7.522 131.363 6.514 131.363 8.152C131.363 8.824 130.803 9.314 129.767 9.314C128.843 9.314 127.989 8.866 127.541 8.348L126.995 9.104C127.681 9.832 128.619 10.168 129.725 10.168ZM139.705 10V3.238H138.655V8.208C138.263 8.754 137.479 9.23 136.653 9.23C135.743 9.23 135.141 8.88 135.141 7.69V3.238H134.091V8.012C134.091 9.482 134.833 10.168 136.247 10.168C137.255 10.168 138.137 9.636 138.655 9.048V10H139.705ZM142.852 10V0.661999H141.802V10H142.852ZM146.654 10.168C147.27 10.168 147.648 9.986 147.914 9.734L147.606 8.95C147.466 9.104 147.186 9.23 146.892 9.23C146.43 9.23 146.206 8.866 146.206 8.362V4.162H147.578V3.238H146.206V1.39H145.156V3.238H144.036V4.162H145.156V8.586C145.156 9.594 145.66 10.168 146.654 10.168ZM151.204 10.168C152.954 10.168 153.864 9.258 153.864 8.124C153.864 5.492 149.678 6.472 149.678 4.988C149.678 4.386 150.252 3.924 151.176 3.924C152.044 3.924 152.786 4.288 153.192 4.778L153.682 4.05C153.136 3.504 152.324 3.07 151.176 3.07C149.566 3.07 148.656 3.966 148.656 5.016C148.656 7.522 152.842 6.514 152.842 8.152C152.842 8.824 152.282 9.314 151.246 9.314C150.322 9.314 149.468 8.866 149.02 8.348L148.474 9.104C149.16 9.832 150.098 10.168 151.204 10.168Z" fill="#2F2F2F"/>
</svg>
