<svg width="119" height="11" viewBox="0 0 119 11" fill="none" xmlns="http://www.w3.org/2000/svg">
<path d="M4.116 10.168C6.636 10.168 7.56 8.782 7.56 7.424C7.56 3.938 2.03 5.142 2.03 3.042C2.03 2.16 2.828 1.558 3.948 1.558C4.97 1.558 5.95 1.908 6.65 2.678L7.35 1.824C6.566 0.998 5.46 0.521999 4.032 0.521999C2.198 0.521999 0.826 1.572 0.826 3.112C0.826 6.444 6.356 5.114 6.356 7.522C6.356 8.236 5.824 9.132 4.158 9.132C2.842 9.132 1.834 8.488 1.218 7.802L0.532 8.684C1.302 9.552 2.492 10.168 4.116 10.168ZM14.8811 10V5.226C14.8811 3.756 14.1391 3.07 12.7251 3.07C11.7031 3.07 10.7791 3.658 10.3031 4.218V0.661999H9.25313V10H10.3031V5.058C10.7091 4.512 11.4931 4.008 12.3051 4.008C13.2151 4.008 13.8311 4.358 13.8311 5.548V10H14.8811ZM19.9317 10.168C21.9897 10.168 23.2777 8.572 23.2777 6.612C23.2777 4.652 21.9897 3.07 19.9317 3.07C17.8737 3.07 16.5857 4.652 16.5857 6.612C16.5857 8.572 17.8737 10.168 19.9317 10.168ZM19.9317 9.23C18.4897 9.23 17.6777 7.998 17.6777 6.612C17.6777 5.24 18.4897 4.008 19.9317 4.008C21.3737 4.008 22.1717 5.24 22.1717 6.612C22.1717 7.998 21.3737 9.23 19.9317 9.23ZM31.8915 10L34.0475 3.238H32.9555L31.3035 8.628L29.5255 3.238H28.6295L26.8515 8.628L25.1995 3.238H24.1075L26.2635 10H27.3135L29.0775 4.568L30.8415 10H31.8915ZM56.5796 10.168C58.6236 10.168 59.8556 8.74 59.8556 7.116C59.8556 5.128 58.4836 4.134 56.8036 4.134C55.5996 4.134 54.5636 4.946 54.1576 5.59C54.1436 5.464 54.1436 5.352 54.1436 5.226C54.1436 3.392 54.9696 1.558 56.7756 1.558C57.7556 1.558 58.3016 1.95 58.7776 2.51L59.3656 1.642C58.7916 0.983999 57.9796 0.521999 56.7756 0.521999C54.1576 0.521999 52.9816 2.818 52.9816 5.352C52.9816 7.886 53.9756 10.168 56.5796 10.168ZM56.5376 9.132C54.9136 9.132 54.2976 7.704 54.1856 6.542C54.7036 5.716 55.5996 5.142 56.5236 5.142C57.7276 5.142 58.6796 5.786 58.6796 7.158C58.6796 8.054 57.9796 9.132 56.5376 9.132ZM78.6306 10V0.661999H77.6086L75.2706 3.07L75.9706 3.784L77.4686 2.202V10H78.6306ZM86.8887 10V8.964H82.3107C84.9147 6.906 86.8467 5.17 86.8467 3.266C86.8467 1.404 85.2647 0.521999 83.7107 0.521999C82.3947 0.521999 81.1767 1.054 80.4627 1.992L81.1767 2.734C81.7227 2.034 82.5907 1.558 83.7107 1.558C84.6767 1.558 85.6567 2.076 85.6567 3.266C85.6567 4.876 83.8367 6.43 80.4767 9.076V10H86.8887ZM109.652 10V0.661999H108.63L106.292 3.07L106.992 3.784L108.49 2.202V10H109.652ZM115.054 10.168C117.098 10.168 118.33 8.74 118.33 7.116C118.33 5.128 116.958 4.134 115.278 4.134C114.074 4.134 113.038 4.946 112.632 5.59C112.618 5.464 112.618 5.352 112.618 5.226C112.618 3.392 113.444 1.558 115.25 1.558C116.23 1.558 116.776 1.95 117.252 2.51L117.84 1.642C117.266 0.983999 116.454 0.521999 115.25 0.521999C112.632 0.521999 111.456 2.818 111.456 5.352C111.456 7.886 112.45 10.168 115.054 10.168ZM115.012 9.132C113.388 9.132 112.772 7.704 112.66 6.542C113.178 5.716 114.074 5.142 114.998 5.142C116.202 5.142 117.154 5.786 117.154 7.158C117.154 8.054 116.454 9.132 115.012 9.132Z" fill="#2F2F2F"/>
</svg>
