<?xml version="1.0" encoding="utf-8"?>
<!-- Generator: Adobe Illustrator 26.0.2, SVG Export Plug-In . SVG Version: 6.00 Build 0)  -->
<svg version="1.1" id="Layer_1" xmlns="http://www.w3.org/2000/svg" xmlns:xlink="http://www.w3.org/1999/xlink" x="0px" y="0px"
	 viewBox="0 0 96 29" style="enable-background:new 0 0 96 29;" xml:space="preserve">
<style type="text/css">
	.st0{fill-rule:evenodd;clip-rule:evenodd;fill:#A1FC03;}
	.st1{fill:#A1FC03;}
</style>
<path class="st0" d="M62.3,14c2.9-1.8,2.2-5.6,0.3-7.1c-1.6-1.3-2.9-1.3-8.1-1.3c-0.8,0-1.8,0-2.8,0c-0.3,0-0.6,0.3-0.6,0.6v6.9
	c-0.4,0-0.7,0-1,0c-1.2,0-1.3,0-1.5,0.2c-0.1,0.1-0.2,0.3-0.3,0.4l0,0c-0.4,0.6-0.6,0.8-0.4,1.1c0.2,0.3,0.3,0.3,1.9,0.3
	c0.4,0,0.8,0,1.3,0v7.6c0,0.3,0.3,0.6,0.6,0.6c6.3,0,7.3,0,8.4-0.2c2.8-0.4,4.5-2.2,4.6-4.7c0.1-2.6-1.4-3.7-2.3-4.3
	C62.4,14.1,62.3,14.1,62.3,14z M55.7,13.2L55.7,13.2c-0.7,0-1.4,0-2.3,0V7.8c0.2,0,4,0,5.3,0c0.5,0,1.1,0.1,1.6,0.3
	c1,0.3,1.6,1.1,1.6,2.2c0,1.2-0.4,2-1.4,2.5C59.5,13.2,59.2,13.2,55.7,13.2z M53.4,15.2v6.1c0,0,0,0,0.1,0c0.1,0,0.2,0,1.4,0
	c0.4,0,0.8,0,1.2,0c2.8,0,3.8,0,4.9-0.5c1.2-0.5,1.8-1.5,1.7-2.9c-0.2-2.9-3.2-2.8-7.3-2.8C54.7,15.2,54,15.2,53.4,15.2z"/>
<path class="st0" d="M66.5,9.7c3.4-6.4,13.5-5.8,15.5,1.9c1.4,5.7-1.2,11.8-7.7,12.1C66.5,24.2,63.5,15.4,66.5,9.7z M69.1,9.8
	c-2.8,3.8-1.6,11.8,4.9,11.8c4.7,0,7-4.6,6-9.2C78.7,6.6,72,5.9,69.1,9.8z"/>
<path class="st1" d="M89.7,14.1c6-8.1,5.8-7.6,5.6-8.1c-0.2-0.4-0.5-0.3-1.7-0.3c-0.4,0-0.1-0.3-5.2,6.7c-5.2-6.9-4.8-6.6-5.2-6.6
	c-1.1,0-1.5-0.1-1.7,0.3c-0.1,0.2-0.1,0.4,0.1,0.6l5.5,7.5c-6.6,9-6.4,8.5-6.2,8.9c0.2,0.4,0.5,0.3,1.7,0.3c0.2,0,0.4-0.1,0.5-0.2
	l5.4-7.2l5.4,7.2c0.2,0.3,0.4,0.2,1.6,0.2c0.2,0,0.4-0.1,0.5-0.3C96.1,22.6,96.3,23,89.7,14.1z"/>
<path class="st1" d="M43.7,14.1c6-8,5.8-7.6,5.6-8.1c-0.1-0.2-0.3-0.3-0.5-0.3c-1.2,0-1.4-0.1-1.6,0.2l-4.8,6.4
	c-5.1-6.9-4.8-6.6-5.2-6.6c-1.2,0-1.5-0.1-1.7,0.3c-0.1,0.2-0.1,0.4,0.1,0.6l5.5,7.5c-6.6,9-6.4,8.5-6.2,8.9
	c0.2,0.4,0.5,0.3,1.7,0.3c0.4,0,0,0.4,5.8-7.4c5.8,7.8,5.4,7.4,5.8,7.4c0,0,1.2,0,1.2,0c0.5,0,0.8-0.6,0.4-1L43.7,14.1z"/>
<path class="st1" d="M8.8,2.3c1.5,0.2,3.4,0.9,5.6,2c0.1,0.1,0.3,0.1,0.4,0c2.2-1.2,4-1.8,5.6-2c0.5-0.1,0.6-0.7,0.1-0.9
	c-3.7-1.7-8-1.8-11.9,0C8.4,1.5,8.3,1.7,8.4,1.9C8.4,2.1,8.6,2.2,8.8,2.3z"/>
<path class="st1" d="M24.5,23.8c0-0.2-0.7-4.5-9.7-11.9c-0.2-0.1-0.4-0.1-0.6,0C6.4,18.2,3.6,24.1,4.8,25.2c3,2.6,6,3.7,9.8,3.7
	c4.1,0,6.7-1.4,9.6-3.6C24.8,25,24.6,23.9,24.5,23.8L24.5,23.8z"/>
<path class="st1" d="M24.6,4.2C23,3.9,20,6.6,18.8,7.8c-0.2,0.2-0.2,0.4,0,0.6c5.8,7.2,7.2,11.3,7.4,13.4c0,0.2,0.2,0.4,0.4,0.4
	c0.2,0,0.4,0,0.5-0.2c1.4-2.2,2.1-4.8,2.1-7.5C29.2,8.6,25.1,4.3,24.6,4.2z"/>
<path class="st1" d="M10.4,7.8C7,4.5,5.4,4.2,4.8,4.2c-0.1,0-0.1,0-0.2,0c-0.1,0-0.2,0.1-0.3,0.1C-0.4,8.9-1.5,16.3,2.1,22
	c0.1,0.1,0.2,0.2,0.4,0.2c0.2,0,0.5-0.2,0.5-0.4c0.2-2.2,1.7-6.3,7.4-13.4C10.6,8.2,10.6,7.9,10.4,7.8z"/>
<path class="st1" d="M5.7,21.4c-0.8,1.4-1,2.2-1,2.3c-0.1,0.4-0.1,1.3,0.2,1.6C8,27.9,11,29,14.9,29c0.7,0,1.4,0,2-0.1
	C12,28.3,7.9,25.4,5.7,21.4z"/>
<path class="st1" d="M3.9,14.5c0-3.6,1.3-6.8,3.5-9.3c-1.4-0.9-2.1-1-2.5-1c-0.1,0-0.1,0-0.2,0c-0.1,0-0.2,0.1-0.3,0.1
	C-0.4,8.9-1.5,16.3,2.2,22c0.1,0.1,0.2,0.2,0.4,0.2c0.3,0,0.5-0.2,0.5-0.4c0.1-0.9,0.4-2.2,1.2-3.9C4,16.8,3.9,15.7,3.9,14.5z"/>
<path class="st1" d="M10.4,2.5c1.9-1.2,4.1-2.1,6.4-2.4c-3-0.4-5.6,0.1-8,1.2C8.6,1.5,8.5,1.7,8.5,1.9C8.6,2.4,9,2.2,10.4,2.5z"/>
</svg>
