<svg width="27" height="27" viewBox="0 0 27 27" fill="none" xmlns="http://www.w3.org/2000/svg">
<path d="M20.3257 26.8924C23.9523 26.8924 26.8922 23.9525 26.8922 20.3259C26.8922 16.6994 23.9523 13.7595 20.3257 13.7595C16.6992 13.7595 13.7593 16.6994 13.7593 20.3259C13.7593 23.9525 16.6992 26.8924 20.3257 26.8924Z" fill="#EDFF81"/>
<path d="M22.2957 9.81961C24.8343 9.81961 26.8922 7.76168 26.8922 5.2231C26.8922 2.68452 24.8343 0.626587 22.2957 0.626587C19.7571 0.626587 17.6992 2.68452 17.6992 5.2231C17.6992 7.76168 19.7571 9.81961 22.2957 9.81961Z" fill="#253D32"/>
<path d="M5.26228 26.853C7.80087 26.853 9.8588 24.7951 9.8588 22.2565C9.8588 19.7179 7.80087 17.66 5.26228 17.66C2.7237 17.66 0.665771 19.7179 0.665771 22.2565C0.665771 24.7951 2.7237 26.853 5.26228 26.853Z" fill="#253D32"/>
<path d="M7.19291 13.7595C10.8195 13.7595 13.7594 10.8196 13.7594 7.19303C13.7594 3.56648 10.8195 0.626587 7.19291 0.626587C3.56636 0.626587 0.626465 3.56648 0.626465 7.19303C0.626465 10.8196 3.56636 13.7595 7.19291 13.7595Z" fill="#EDFF81"/>
</svg>
