<svg width="928" height="23" viewBox="0 0 928 23" fill="none" xmlns="http://www.w3.org/2000/svg">
<path d="M4.116 14.168C6.636 14.168 7.56 12.782 7.56 11.424C7.56 7.938 2.03 9.142 2.03 7.042C2.03 6.16 2.828 5.558 3.948 5.558C4.97 5.558 5.95 5.908 6.65 6.678L7.35 5.824C6.566 4.998 5.46 4.522 4.032 4.522C2.198 4.522 0.826 5.572 0.826 7.112C0.826 10.444 6.356 9.114 6.356 11.522C6.356 12.236 5.824 13.132 4.158 13.132C2.842 13.132 1.834 12.488 1.218 11.802L0.532 12.684C1.302 13.552 2.492 14.168 4.116 14.168ZM14.8811 14V9.226C14.8811 7.756 14.1391 7.07 12.7251 7.07C11.7031 7.07 10.7791 7.658 10.3031 8.218V4.662H9.25313V14H10.3031V9.058C10.7091 8.512 11.4931 8.008 12.3051 8.008C13.2151 8.008 13.8311 8.358 13.8311 9.548V14H14.8811ZM19.9317 14.168C21.9897 14.168 23.2777 12.572 23.2777 10.612C23.2777 8.652 21.9897 7.07 19.9317 7.07C17.8737 7.07 16.5857 8.652 16.5857 10.612C16.5857 12.572 17.8737 14.168 19.9317 14.168ZM19.9317 13.23C18.4897 13.23 17.6777 11.998 17.6777 10.612C17.6777 9.24 18.4897 8.008 19.9317 8.008C21.3737 8.008 22.1717 9.24 22.1717 10.612C22.1717 11.998 21.3737 13.23 19.9317 13.23ZM31.8915 14L34.0475 7.238H32.9555L31.3035 12.628L29.5255 7.238H28.6295L26.8515 12.628L25.1995 7.238H24.1075L26.2635 14H27.3135L29.0775 8.568L30.8415 14H31.8915ZM35.7887 6.272C36.1807 6.272 36.5027 5.964 36.5027 5.572C36.5027 5.18 36.1807 4.858 35.7887 4.858C35.4107 4.858 35.0887 5.18 35.0887 5.572C35.0887 5.964 35.4107 6.272 35.7887 6.272ZM36.3207 14V7.238H35.2707V14H36.3207ZM44.0292 14V9.254C44.0292 7.784 43.2872 7.07 41.8732 7.07C40.8652 7.07 39.9412 7.658 39.4652 8.218V7.238H38.4152V14H39.4652V9.058C39.8572 8.512 40.6412 8.008 41.4672 8.008C42.3772 8.008 42.9792 8.386 42.9792 9.576V14H44.0292ZM48.8422 16.744C50.4942 16.744 52.0622 16.044 52.0622 13.804V7.238H51.0122V8.26C50.4662 7.518 49.6542 7.07 48.7442 7.07C46.9662 7.07 45.7342 8.414 45.7342 10.584C45.7342 12.768 46.9802 14.084 48.7442 14.084C49.6962 14.084 50.5222 13.566 51.0122 12.88V13.846C51.0122 15.33 49.9622 15.876 48.8422 15.876C47.8762 15.876 47.2042 15.624 46.6442 14.952L46.1122 15.736C46.9102 16.52 47.6942 16.744 48.8422 16.744ZM48.9962 13.16C47.6382 13.16 46.8262 12.068 46.8262 10.584C46.8262 9.086 47.6382 8.008 48.9962 8.008C49.8362 8.008 50.6482 8.512 51.0122 9.1V12.054C50.6482 12.642 49.8362 13.16 48.9962 13.16ZM60.3786 14V4.662H59.3566L57.0186 7.07L57.7186 7.784L59.2166 6.202V14H60.3786ZM69.3508 11.074V10.15H61.8888V11.074H69.3508ZM73.8416 14.168C75.6756 14.168 77.1876 13.216 77.1876 11.634C77.1876 10.388 76.1236 9.534 74.9616 9.184C76.0396 8.876 77.0476 8.176 77.0476 6.944C77.0476 5.264 75.3816 4.522 73.8416 4.522C72.2876 4.522 70.6496 5.264 70.6496 6.944C70.6496 8.176 71.6436 8.876 72.7216 9.184C71.5596 9.534 70.4956 10.388 70.4956 11.634C70.4956 13.23 71.9936 14.168 73.8416 14.168ZM73.8416 8.708C73.2816 8.61 71.8116 8.232 71.8116 7.098C71.8116 6.132 72.7076 5.558 73.8416 5.558C74.9616 5.558 75.8716 6.132 75.8716 7.098C75.8716 8.232 74.4156 8.61 73.8416 8.708ZM73.8416 13.132C72.6796 13.132 71.6576 12.516 71.6576 11.508C71.6576 10.29 73.2676 9.772 73.8416 9.702C74.4156 9.772 76.0116 10.29 76.0116 11.508C76.0116 12.516 74.9896 13.132 73.8416 13.132ZM85.5157 14.168C87.5737 14.168 88.8617 12.572 88.8617 10.612C88.8617 8.652 87.5737 7.07 85.5157 7.07C83.4577 7.07 82.1697 8.652 82.1697 10.612C82.1697 12.572 83.4577 14.168 85.5157 14.168ZM85.5157 13.23C84.0737 13.23 83.2617 11.998 83.2617 10.612C83.2617 9.24 84.0737 8.008 85.5157 8.008C86.9577 8.008 87.7557 9.24 87.7557 10.612C87.7557 11.998 86.9577 13.23 85.5157 13.23ZM91.9174 14V8.162H93.2894V7.238H91.9174V6.72C91.9174 5.866 92.2954 5.39 92.9814 5.39C93.3314 5.39 93.5974 5.53 93.8214 5.726L94.2554 5.04C93.8354 4.648 93.3594 4.522 92.8274 4.522C91.6234 4.522 90.8674 5.334 90.8674 6.72V7.238H89.7474V8.162H90.8674V14H91.9174ZM100.752 14V4.662H99.7297L97.3917 7.07L98.0917 7.784L99.5897 6.202V14H100.752ZM106.126 14.168C108.674 14.168 109.696 11.606 109.696 9.338C109.696 7.056 108.674 4.522 106.126 4.522C103.564 4.522 102.556 7.056 102.556 9.338C102.556 11.606 103.564 14.168 106.126 14.168ZM106.126 13.132C104.348 13.132 103.746 11.2 103.746 9.338C103.746 7.476 104.348 5.558 106.126 5.558C107.904 5.558 108.506 7.476 108.506 9.338C108.506 11.2 107.904 13.132 106.126 13.132ZM116.123 14V9.212C116.431 8.666 117.313 8.134 117.957 8.134C118.125 8.134 118.251 8.148 118.377 8.176V7.098C117.453 7.098 116.669 7.616 116.123 8.33V7.238H115.073V14H116.123ZM122.747 14.168C123.853 14.168 124.763 13.804 125.435 13.132L124.931 12.446C124.399 12.992 123.615 13.3 122.845 13.3C121.389 13.3 120.493 12.236 120.409 10.962H125.883V10.696C125.883 8.666 124.679 7.07 122.635 7.07C120.703 7.07 119.303 8.652 119.303 10.612C119.303 12.726 120.745 14.168 122.747 14.168ZM124.847 10.192H120.409C120.465 9.156 121.179 7.938 122.621 7.938C124.161 7.938 124.833 9.184 124.847 10.192ZM129.725 14.168C131.475 14.168 132.385 13.258 132.385 12.124C132.385 9.492 128.199 10.472 128.199 8.988C128.199 8.386 128.773 7.924 129.697 7.924C130.565 7.924 131.307 8.288 131.713 8.778L132.203 8.05C131.657 7.504 130.845 7.07 129.697 7.07C128.087 7.07 127.177 7.966 127.177 9.016C127.177 11.522 131.363 10.514 131.363 12.152C131.363 12.824 130.803 13.314 129.767 13.314C128.843 13.314 127.989 12.866 127.541 12.348L126.995 13.104C127.681 13.832 128.619 14.168 129.725 14.168ZM139.705 14V7.238H138.655V12.208C138.263 12.754 137.479 13.23 136.653 13.23C135.743 13.23 135.141 12.88 135.141 11.69V7.238H134.091V12.012C134.091 13.482 134.833 14.168 136.247 14.168C137.255 14.168 138.137 13.636 138.655 13.048V14H139.705ZM142.852 14V4.662H141.802V14H142.852ZM146.654 14.168C147.27 14.168 147.648 13.986 147.914 13.734L147.606 12.95C147.466 13.104 147.186 13.23 146.892 13.23C146.43 13.23 146.206 12.866 146.206 12.362V8.162H147.578V7.238H146.206V5.39H145.156V7.238H144.036V8.162H145.156V12.586C145.156 13.594 145.66 14.168 146.654 14.168ZM151.204 14.168C152.954 14.168 153.864 13.258 153.864 12.124C153.864 9.492 149.678 10.472 149.678 8.988C149.678 8.386 150.252 7.924 151.176 7.924C152.044 7.924 152.786 8.288 153.192 8.778L153.682 8.05C153.136 7.504 152.324 7.07 151.176 7.07C149.566 7.07 148.656 7.966 148.656 9.016C148.656 11.522 152.842 10.514 152.842 12.152C152.842 12.824 152.282 13.314 151.246 13.314C150.322 13.314 149.468 12.866 149.02 12.348L148.474 13.104C149.16 13.832 150.098 14.168 151.204 14.168Z" fill="#2F2F2F"/>
<path d="M212.116 14.168C214.636 14.168 215.56 12.782 215.56 11.424C215.56 7.938 210.03 9.142 210.03 7.042C210.03 6.16 210.828 5.558 211.948 5.558C212.97 5.558 213.95 5.908 214.65 6.678L215.35 5.824C214.566 4.998 213.46 4.522 212.032 4.522C210.198 4.522 208.826 5.572 208.826 7.112C208.826 10.444 214.356 9.114 214.356 11.522C214.356 12.236 213.824 13.132 212.158 13.132C210.842 13.132 209.834 12.488 209.218 11.802L208.532 12.684C209.302 13.552 210.492 14.168 212.116 14.168ZM222.881 14V9.226C222.881 7.756 222.139 7.07 220.725 7.07C219.703 7.07 218.779 7.658 218.303 8.218V4.662H217.253V14H218.303V9.058C218.709 8.512 219.493 8.008 220.305 8.008C221.215 8.008 221.831 8.358 221.831 9.548V14H222.881ZM227.932 14.168C229.99 14.168 231.278 12.572 231.278 10.612C231.278 8.652 229.99 7.07 227.932 7.07C225.874 7.07 224.586 8.652 224.586 10.612C224.586 12.572 225.874 14.168 227.932 14.168ZM227.932 13.23C226.49 13.23 225.678 11.998 225.678 10.612C225.678 9.24 226.49 8.008 227.932 8.008C229.374 8.008 230.172 9.24 230.172 10.612C230.172 11.998 229.374 13.23 227.932 13.23ZM239.891 14L242.047 7.238H240.955L239.303 12.628L237.525 7.238H236.629L234.851 12.628L233.199 7.238H232.107L234.263 14H235.313L237.077 8.568L238.841 14H239.891ZM264.58 14.168C266.624 14.168 267.856 12.74 267.856 11.116C267.856 9.128 266.484 8.134 264.804 8.134C263.6 8.134 262.564 8.946 262.158 9.59C262.144 9.464 262.144 9.352 262.144 9.226C262.144 7.392 262.97 5.558 264.776 5.558C265.756 5.558 266.302 5.95 266.778 6.51L267.366 5.642C266.792 4.984 265.98 4.522 264.776 4.522C262.158 4.522 260.982 6.818 260.982 9.352C260.982 11.886 261.976 14.168 264.58 14.168ZM264.538 13.132C262.914 13.132 262.298 11.704 262.186 10.542C262.704 9.716 263.6 9.142 264.524 9.142C265.728 9.142 266.68 9.786 266.68 11.158C266.68 12.054 265.98 13.132 264.538 13.132ZM286.631 14V4.662H285.609L283.271 7.07L283.971 7.784L285.469 6.202V14H286.631ZM294.889 14V12.964H290.311C292.915 10.906 294.847 9.17 294.847 7.266C294.847 5.404 293.265 4.522 291.711 4.522C290.395 4.522 289.177 5.054 288.463 5.992L289.177 6.734C289.723 6.034 290.591 5.558 291.711 5.558C292.677 5.558 293.657 6.076 293.657 7.266C293.657 8.876 291.837 10.43 288.477 13.076V14H294.889ZM317.652 14V4.662H316.63L314.292 7.07L314.992 7.784L316.49 6.202V14H317.652ZM323.054 14.168C325.098 14.168 326.33 12.74 326.33 11.116C326.33 9.128 324.958 8.134 323.278 8.134C322.074 8.134 321.038 8.946 320.632 9.59C320.618 9.464 320.618 9.352 320.618 9.226C320.618 7.392 321.444 5.558 323.25 5.558C324.23 5.558 324.776 5.95 325.252 6.51L325.84 5.642C325.266 4.984 324.454 4.522 323.25 4.522C320.632 4.522 319.456 6.818 319.456 9.352C319.456 11.886 320.45 14.168 323.054 14.168ZM323.012 13.132C321.388 13.132 320.772 11.704 320.66 10.542C321.178 9.716 322.074 9.142 322.998 9.142C324.202 9.142 325.154 9.786 325.154 11.158C325.154 12.054 324.454 13.132 323.012 13.132Z" fill="#2F2F2F"/>
<rect x="905.865" y="1.00021" width="8.2191" height="8.2191" stroke="#5C5C5C" stroke-width="2" stroke-linecap="square"/>
<rect x="918.567" y="1" width="8.2191" height="8.2191" stroke="#5C5C5C" stroke-width="2" stroke-linecap="square"/>
<rect x="905.865" y="13.7022" width="8.2191" height="8.2191" stroke="#5C5C5C" stroke-width="2" stroke-linecap="square"/>
<rect x="918.567" y="13.7022" width="8.2191" height="8.2191" stroke="#5C5C5C" stroke-width="2" stroke-linecap="square"/>
<path d="M878.219 3.24158H890.921" stroke="#D4D4D4" stroke-width="2" stroke-linecap="square"/>
<path d="M878.219 11.4607H890.921" stroke="#D4D4D4" stroke-width="2" stroke-linecap="square"/>
<path d="M878.219 19.6797H890.921" stroke="#D4D4D4" stroke-width="2" stroke-linecap="square"/>
<rect x="870" y="1.00021" width="4.48315" height="4.48315" stroke="#D4D4D4" stroke-width="2" stroke-linecap="square"/>
<rect x="870" y="9.21909" width="4.48315" height="4.48315" stroke="#D4D4D4" stroke-width="2" stroke-linecap="square"/>
<rect x="870" y="17.4382" width="4.48315" height="4.48315" stroke="#D4D4D4" stroke-width="2" stroke-linecap="square"/>
</svg>
